<svg xmlns="http://www.w3.org/2000/svg" viewBox="0 0 900 380" font-family="Arial, Helvetica, sans-serif" role="img" aria-label="Diagram: multi-omics data and biological knowledge graphs feed deep learning and LLM agents, producing predictions for precision oncology">
  <defs>
    <marker id="a" viewBox="0 0 10 10" refX="9" refY="5" markerWidth="8" markerHeight="8" orient="auto"><path d="M0 0L10 5L0 10z" fill="#52606d"/></marker>
  </defs>
  <rect width="900" height="380" fill="#f3f6f9" rx="8"/>
  <g font-size="14" fill="#1f2933">
    <rect x="30" y="40" width="190" height="46" rx="6" fill="#dbe7f3"/><text x="125" y="69" text-anchor="middle">Genomics</text>
    <rect x="30" y="100" width="190" height="46" rx="6" fill="#d3e4d6"/><text x="125" y="129" text-anchor="middle">Transcriptomics</text>
    <rect x="30" y="160" width="190" height="46" rx="6" fill="#f0e3c8"/><text x="125" y="189" text-anchor="middle">Proteomics</text>
    <rect x="30" y="220" width="190" height="46" rx="6" fill="#e9d6e3"/><text x="125" y="249" text-anchor="middle">Metabolomics</text>
    <rect x="30" y="280" width="190" height="46" rx="6" fill="#e0d9cf"/><text x="125" y="309" text-anchor="middle">Histopathology images</text>
  </g>
  <g>
    <rect x="270" y="60" width="200" height="260" rx="8" fill="#ffffff" stroke="#c7d0d9"/>
    <text x="370" y="88" text-anchor="middle" font-size="14" fill="#1f2933">Biological knowledge</text>
    <text x="370" y="106" text-anchor="middle" font-size="12" fill="#52606d">KEGG · Reactome · pathways</text>
    <g stroke="#9fb3c8" stroke-width="1.5">
      <line x1="310" y1="160" x2="370" y2="210"/><line x1="370" y1="210" x2="430" y2="160"/><line x1="370" y1="210" x2="340" y2="280"/>
      <line x1="370" y1="210" x2="410" y2="270"/><line x1="310" y1="160" x2="430" y2="160"/><line x1="340" y1="280" x2="410" y2="270"/>
      <line x1="430" y1="160" x2="410" y2="270"/>
    </g>
    <g fill="#1f4e79">
      <circle cx="310" cy="160" r="8"/><circle cx="430" cy="160" r="8"/><circle cx="370" cy="210" r="10"/><circle cx="340" cy="280" r="8"/><circle cx="410" cy="270" r="8"/>
    </g>
  </g>
  <g>
    <rect x="520" y="60" width="200" height="260" rx="8" fill="#1f4e79"/>
    <text x="620" y="92" text-anchor="middle" font-size="14" fill="#fff">Deep learning</text>
    <text x="620" y="112" text-anchor="middle" font-size="14" fill="#fff">LLMs · agentic AI</text>
    <g fill="#8db8e0">
      <circle cx="560" cy="170" r="7"/><circle cx="560" cy="210" r="7"/><circle cx="560" cy="250" r="7"/>
      <circle cx="620" cy="150" r="7"/><circle cx="620" cy="190" r="7"/><circle cx="620" cy="230" r="7"/><circle cx="620" cy="270" r="7"/>
      <circle cx="680" cy="190" r="7"/><circle cx="680" cy="230" r="7"/>
    </g>
    <g stroke="#8db8e0" stroke-width="1" opacity=".7">
      <line x1="560" y1="170" x2="620" y2="150"/><line x1="560" y1="170" x2="620" y2="190"/><line x1="560" y1="210" x2="620" y2="190"/><line x1="560" y1="210" x2="620" y2="230"/><line x1="560" y1="250" x2="620" y2="230"/><line x1="560" y1="250" x2="620" y2="270"/>
      <line x1="620" y1="150" x2="680" y2="190"/><line x1="620" y1="190" x2="680" y2="190"/><line x1="620" y1="230" x2="680" y2="230"/><line x1="620" y1="270" x2="680" y2="230"/>
    </g>
  </g>
  <g font-size="13" fill="#1f2933">
    <rect x="760" y="90" width="120" height="44" rx="6" fill="#fff" stroke="#c7d0d9"/><text x="820" y="117" text-anchor="middle">Subtypes</text>
    <rect x="760" y="168" width="120" height="44" rx="6" fill="#fff" stroke="#c7d0d9"/><text x="820" y="195" text-anchor="middle">Prognosis</text>
    <rect x="760" y="246" width="120" height="44" rx="6" fill="#fff" stroke="#c7d0d9"/><text x="820" y="273" text-anchor="middle">Mechanisms</text>
  </g>
  <g stroke="#52606d" stroke-width="2" fill="none" marker-end="url(#a)">
    <path d="M220 63 C245 63 245 190 268 190"/><path d="M220 123 C245 123 245 190 268 190"/><path d="M220 183 L268 190"/><path d="M220 243 C245 243 245 190 268 190"/><path d="M220 303 C245 303 245 190 268 190"/>
    <path d="M470 190 L518 190"/>
    <path d="M720 190 C740 190 740 112 758 112"/><path d="M720 190 L758 190"/><path d="M720 190 C740 190 740 268 758 268"/>
  </g>
  <text x="450" y="358" text-anchor="middle" font-size="12" fill="#52606d">Integrating multi-omics and image data with curated biology to explain and predict cancer</text>
</svg>
